# xmcd
#
# Track frame offsets:
#	150
#	21685
#	37452
#	56023
#	69010
#	97354
#	109953
#	124925
#	137571
#	152550
#	162628
#	176417
#	192662
#	210026
#
# Disc length: 3220 seconds
# Revision: 1
# Processed by: cddbd v1.5.2PL0 Copyright (c) Steve Scherf et al.
# Submitted via: dBpowerAMP V12.0
#
DISCID=d30c920e
DTITLE=Mojo Juju - Mojo Juju
DYEAR=2012
DGENRE=Blues
TTITLE0=Pony Takes a Powder
TTITLE1=Sweet Tsunami Symphony
TTITLE2=Must be Desire
TTITLE3=Frankie Baby
TTITLE4=I Put a Spell on You
TTITLE5=The Meanest Thing I Ever Did
TTITLE6=Switched to Drinkin' Gin
TTITLE7=Horse Named Regret
TTITLE8=Train Along The Hawkesbury
TTITLE9=Parisian Rain
TTITLE10=Full Moon Over Budapest
TTITLE11=Brother, Where Have You Been?
TTITLE12=The Thing I Can't Erase
TTITLE13=Drive on
EXTD=
EXTT0=
EXTT1=
EXTT2=
EXTT3=
EXTT4=
EXTT5=
EXTT6=
EXTT7=
EXTT8=
EXTT9=
EXTT10=
EXTT11=
EXTT12=
EXTT13=
PLAYORDER=
